<svg xmlns="http://www.w3.org/2000/svg" viewBox="0 0 280 280" class="oops-svg">
  <path fill="#c8c6c4" d="M.5971 140c0 21.243 4.7085 41.3809 13.13 59.4185C35.9854 247.0508 84.1552 280.04 140 280.04c25.9315 0 50.2006-7.1174 70.9956-19.5108 40.9529-24.3786 68.4073-69.2336 68.4073-120.5292C279.4029 62.6634 216.9882-.04 140-.04S.5971 62.6634.5971 140z"/>
  <path fill="#fff" d="M13.7222 199.4077C20.5996 195.963 31.115 188.608 32.36 183.91c3.15-11.83-9.26-21.64-3.65-32.6299C34.32 140.29 47.56 140.4 55.31 130c7.74-10.41 7.59-23.79 7.59-23.79l39.9-27.01 2.42 10.52 2.56-11.63 38.17 23.97s2.02 17.62 9.88 28.25c7.86 10.64 22.73 9.81 28.46 20.97 5.7401 11.16-8.2 21.71-4.92 33.64 3.27 11.92 26.07 11.68 31.38 24.11 8.46 19.8199-19.14 23.55-19.13 34.75.0098 9.0246 11.6118 8.6063 19.2561 16.8177C190.1074 272.9477 165.8823 280.04 140 280.04c-55.8448 0-104.0146-32.9893-126.2729-80.6215-.0016-.0036-.0032-.0073-.0049-.0108z"/>
  <circle cx="210.2446" cy="78.09" r="37.925" fill="#fff"/>
  <circle cx="176.9963" cy="99.858" r="8.67" fill="#fff"/>
  <circle cx="160.2036" cy="108.528" r="4.598" fill="#fff"/>
  <path fill="#f7b548" d="M210.3006 98.429a4.1448 4.1448 0 0 1-3.005-1.212 4.01 4.01 0 0 1-1.233-3.026 4.072 4.072 0 0 1 1.233-3.025 4.29 4.29 0 0 1 4.59-.902c.501.206.958.505 1.347.88.4.386.724.843.954 1.348.239.534.359 1.114.352 1.7a3.927 3.927 0 0 1-.352 1.657 4.3758 4.3758 0 0 1-2.3 2.228c-.5.22-1.04.34-1.586.352zm-.072-12.962c-1.9169-.0001-3.4875-1.522-3.548-3.438l-.648-20.607c-.0613-1.9597 1.4776-3.598 3.4373-3.6593a3.4055 3.4055 0 0 1 .1107-.0017h1.295c1.9606.0001 3.5499 1.5896 3.5497 3.5503a3.715 3.715 0 0 1-.0017.1107l-.648 20.607c-.0605 1.9156-1.6305 3.4374-3.547 3.438z"/>
  <path fill="#fff" d="M63.1278 113.633c.195 1.844.497 3.65.894 5.406 2.201 9.7 7.407 18.059 14.433 24.046 8.293 7.081 19.124 10.856 30.514 9.655l.703-.074c21.147-2.23 36.816-20.83 36.93-42.682a45.1006 45.1006 0 0 0-.254-5.126c-1.1-10.426-6.107-19.442-13.317-25.587-3.493-2.986-7.507-5.294-11.843-6.76a34.3845 34.3845 0 0 0-14.668-1.63l-11.526 1.215a34.3082 34.3082 0 0 0-14.303 4.836c-11.872 7.219-19.182 21.348-17.563 36.701z"/>
  <path fill="#8b8cc4" d="M122.5138 170.67l.017-.004-.138-.03c-.598-.166-1.207-.331-1.826-.494-3.484-1.3-5.873-4.767-5.873-8.561v-2.188l-18.39.086v2.524c-.0002 3.908-2.5386 7.363-6.268 8.531l.003.001c-.526.213-1.062.436-1.626.682-.923.402-3.237 1.19-6.02 2.093 1.043.798 3.237 2.39 5.874 4.281 10.195 7.311 23.905 7.422 34.21.266l8.566-4.547s-3.84-1.333-8.529-2.64z"/>
  <path fill="#e0bb95" d="M114.6928 155.23v-.02c0-1.9 1.908-3.902 3.66-4.639l1.225-3.261-26.476-.318.09 3.051c1.751.738 3.112 3.265 3.112 5.166v5.327h18.39v-5.306h-.001z"/>
  <path fill="#8b8cc4" d="M160.1238 270.393c14.135-17.362 8.938-58.857 3.985-73.132-6.341-18.278-33.066-23.951-33.066-23.951s18.946 45.219 5.756 78.132c-5.944 14.833 11.27 25.968 23.325 18.951z"/>
  <linearGradient id="a" x1="171.9147" x2="171.9147" y1="-31.8991" y2="73.2225" gradientTransform="rotate(180 140 140)" gradientUnits="userSpaceOnUse">
    <stop offset=".007" stop-color="#4b4c75"/>
    <stop offset=".176" stop-color="#5a5b88"/>
    <stop offset=".52" stop-color="#7576a9"/>
    <stop offset=".807" stop-color="#8586bd"/>
    <stop offset="1" stop-color="#8b8cc4"/>
  </linearGradient>
  <path fill="url(#a)" d="M131.0408 173.315l21.893 39.8-7.72 22.568c-5.3654 14.4277-6.4106 29.6004-3.1633 44.3219-.684.0099-1.3642.0351-2.0505.0351-25.9861 0-50.3057-7.1501-71.1307-19.588-.3117-7.8233-.6519-18.2817-3.0695-24.769l-2.563-39.7 19.154-22.668h48.65z"/>
  <path fill="#8b8cc4" d="M160.1238 270.393c14.135-17.362 8.938-58.857 3.985-73.132-6.341-18.278-33.066-23.951-33.066-23.951s18.946 45.219 5.756 78.132c-5.944 14.833 11.27 25.968 23.325 18.951z"/>
  <path fill="#8b8cc4" d="M136.7988 251.442c-9.402 11.006-17.522 29.187 4.641 29.244 7.611.02 14.718-4.368 18.684-10.293 10.307-15.4-12.805-29.178-23.325-18.95v-.001z"/>
  <path fill="#e0bb95" d="M86.228 269.2343c14.5012-.5145 41.1718-6.7898 50.5708-17.7923l.0001.001c10.52-10.228 33.632 3.55 23.325 18.95-2.925 4.3699-7.1564 7.8732-12.228 9.4069-2.6149.1469-5.2442.2401-7.8958.2401-19.0609 0-37.2247-3.8488-53.7721-10.8057z"/>
  <linearGradient id="b" x1="64.3146" x2="64.3146" y1="-2360.2019" y2="-2231.668" gradientTransform="matrix(1 0 0 -1 0 -2032)" gradientUnits="userSpaceOnUse">
    <stop offset=".007" stop-color="#4b4c75"/>
    <stop offset=".176" stop-color="#5a5b88"/>
    <stop offset=".52" stop-color="#7576a9"/>
    <stop offset=".807" stop-color="#8586bd"/>
    <stop offset="1" stop-color="#8b8cc4"/>
  </linearGradient>
  <path fill="url(#b)" d="M77.0618 222.078l5.33-48.768s-25.254 6.252-33.066 23.951c-6.84 15.493-.184 65.187-.184 65.187l27.92-40.37z"/>
  <path fill="#e0bb95" d="M108.9618 152.812l.728-.076c16.073-1.695 27.728-16.098 26.033-32.17l-.022-.214c-1.473-13.965-13.987-24.091-27.95-22.619l-8.363.882c-13.964 1.472-24.09 13.986-22.619 27.95l.023.215c1.695 16.072 16.098 27.728 32.17 26.033v-.001z"/>
  <ellipse cx="95.7258" cy="124.7354" fill="#605d5a" rx="2.499" ry="4.45" transform="rotate(-6.012 95.7214 124.739)"/>
  <radialGradient id="c" cx="4982.9731" cy="-4199.4849" r="24.944" gradientTransform="matrix(.5272 -.0882 .0727 .4314 -2217.8086 2381.5654)" gradientUnits="userSpaceOnUse">
    <stop offset="0" stop-color="#7e4a37"/>
    <stop offset=".078" stop-color="#895742"/>
    <stop offset=".367" stop-color="#af8266"/>
    <stop offset=".627" stop-color="#caa17f"/>
    <stop offset=".847" stop-color="#dab48f"/>
    <stop offset="1" stop-color="#e0bb95"/>
  </radialGradient>
  <path fill="url(#c)" d="M106.2878 116.88l2.49 23.607 21.69-2.287-2.489-23.607-21.691 2.287z"/>
  <ellipse cx="118.9154" cy="122.2602" fill="#605d5a" rx="2.499" ry="4.45" transform="rotate(-6.012 118.9116 122.2647)"/>
  <path fill="#fff" d="M63.9348 122.192a21.8388 21.8388 0 0 0 10.385 1.417c11.591-1.222 20.127-11.25 19.645-22.743l18.988-2.002c1.925 11.341 12.365 19.367 23.956 18.145a21.8415 21.8415 0 0 0 10.436-3.945c.024-1.627-16.714-29.144-16.714-29.144l-57.848 6.1s-9.24 30.489-8.848 32.172z"/>
  <path fill="#9b643d" d="M93.7538 98.928c.009-.038.204 1.939.204 1.939l9.493-1.006-.21-1.989c-.5388-2.5922-3.0771-4.2569-5.6693-3.718-2.2537.4684-3.8563 2.4725-3.8177 4.774zm9.493-1.001l.013-.057.21 1.988 9.474-.999-.21-1.988c-.5388-2.5922-3.0771-4.2569-5.6693-3.718-2.2537.4684-3.8563 2.4725-3.8177 4.774z" opacity=".3"/>
  <path fill="#e0bb95" d="M106.7938 121.672c1.59 5.283 5.616 5.141 5.022 9.16-.331 2.235-3.375 3.743-3.481 5.454 0 0-5.538.584-6.64-7.24-.67-4.77 4.393-9.718 5.099-7.374z"/>
  <path fill="#bf8f68" d="M103.7828 142.904c.703-.676 1.558-1.036 2.365-1.284a11.6878 11.6878 0 0 1 2.336-.41 15.9736 15.9736 0 0 1 2.148-.028c.718.04 1.445.098 2.325.29l.045.01a.777.777 0 0 1 .46 1.22c-.577.78-1.36 1.291-2.182 1.645a7.7168 7.7168 0 0 1-2.521.58c-.83.056-1.618 0-2.369-.119a12.3283 12.3283 0 0 1-2.294-.612l-.048-.017a.7679.7679 0 0 1-.265-1.275z" opacity=".8"/>
  <path fill="#e0bb95" d="M96.5998 195.1239l-2.2439-21.1626a6.61 6.61 0 0 1 2.4403-5.856l5.6268-4.5071a3.578 3.578 0 0 1 3.684-1.1822s8.2366 1.837 8.5875 2.2912c2.5302 3.2703-3.8226 2.4142-3.8226 2.4142l3.0062 1.3959a4.038 4.038 0 0 1 2.3369 3.629l-2.5611 8.1799a.935.935 0 0 1-1.6017-.0202l-1.0798-4.9779a.8149.8149 0 0 0-1.0803-.4601l-4.0698 2.2781s-2.0592.4247 1.758 14.2907c1.6735 6.0856-4.2469 10.9117-4.2469 10.9117L96.6 195.1248l-.0002-.0009z"/>
  <linearGradient id="d" x1="61.6496" x2="61.6496" y1="-2345.1411" y2="-2244.927" gradientTransform="matrix(1 0 0 -1 0 -2032)" gradientUnits="userSpaceOnUse">
    <stop offset=".007" stop-color="#4b4c75"/>
    <stop offset=".176" stop-color="#5a5b88"/>
    <stop offset=".52" stop-color="#7576a9"/>
    <stop offset=".807" stop-color="#8586bd"/>
    <stop offset="1" stop-color="#8b8cc4"/>
  </linearGradient>
  <path fill="url(#d)" d="M77.0618 221.505s-19.924-42.516-27.736-24.817c-6.84 15.493-.184 65.187-.184 65.187l27.92-40.37z"/>
  <path fill="#e0bb95" d="M96.0888 189.995s.151 2.8-.604 5.203c-4.18 13.297-16.19 27.486-25.68 37.111-8.303 8.42-15.787 16.51-19.317 24.054 2.781 20.92 21.643 14.912 21.643 14.912s11.463-13.538 22.062-40.236c8.948-22.537 13.034-34.227 13.034-34.227l-11.138-6.817z"/>
  <ellipse cx="62.4016" cy="262.2459" fill="#e0bb95" rx="13.2804" ry="13.2804"/>
</svg>
